<svg width="20" height="24" viewBox="0 0 20 24" fill="none" xmlns="http://www.w3.org/2000/svg">
<path d="M14.6187 0H14.7894C14.9264 1.69253 14.2804 2.95719 13.4952 3.87301C12.7249 4.78251 11.6699 5.6646 9.96369 5.53076C9.84987 3.86247 10.4969 2.69161 11.281 1.77789C12.0082 0.92636 13.3414 0.168621 14.6187 0ZM19.7837 17.6167V17.6641C19.3042 19.1163 18.6203 20.361 17.7856 21.516C17.0236 22.5646 16.0899 23.9758 14.4227 23.9758C12.982 23.9758 12.0251 23.0494 10.5486 23.0241C8.98674 22.9988 8.12783 23.7987 6.69982 24H6.21293C5.16432 23.8482 4.31805 23.0178 3.70153 22.2695C1.88359 20.0585 0.478769 17.2025 0.217407 13.5476V12.4737C0.328065 9.85799 1.59904 7.73126 3.28841 6.70057C4.17999 6.15255 5.40566 5.68568 6.77043 5.89435C7.35533 5.98498 7.95288 6.18522 8.47666 6.38335C8.97304 6.5741 9.59377 6.9124 10.1818 6.89448C10.5802 6.88289 10.9765 6.67527 11.378 6.52878C12.5541 6.10407 13.7071 5.61718 15.2268 5.84587C17.0531 6.12199 18.3494 6.93347 19.1504 8.18548C17.6054 9.16875 16.3839 10.6505 16.5926 13.1809C16.7781 15.4794 18.1144 16.8241 19.7837 17.6167Z" fill="black"/>
</svg>
