<svg width="24" height="24" viewBox="0 0 24 24" fill="none" xmlns="http://www.w3.org/2000/svg">
<g clip-path="url(#clip0_2086_34)">
<path d="M3.515 24.8634C3.67119 24.9577 3.84769 25.0048 4.02618 24.9996C4.20467 24.9944 4.37863 24.9372 4.53 24.8339L12 19.7405L19.47 24.8339C19.6214 24.9371 19.7953 24.9942 19.9738 24.9993C20.1522 25.0045 20.3286 24.9574 20.4848 24.863C20.6409 24.7686 20.771 24.6303 20.8616 24.4625C20.9522 24.2947 21 24.1036 21 23.9088V4.27269C21 3.40472 20.6839 2.5723 20.1213 1.95855C19.5587 1.3448 18.7956 1 18 1H6C5.20435 1 4.44129 1.3448 3.87868 1.95855C3.31607 2.5723 3 3.40472 3 4.27269V23.9088C2.99991 24.1036 3.04763 24.2948 3.13819 24.4627C3.22876 24.6305 3.35886 24.7689 3.515 24.8634ZM5 4.27269C5 3.98337 5.10536 3.70589 5.29289 3.50131C5.48043 3.29673 5.73478 3.18179 6 3.18179H18C18.2652 3.18179 18.5196 3.29673 18.7071 3.50131C18.8946 3.70589 19 3.98337 19 4.27269V21.9452L12.53 17.5336C12.3711 17.4253 12.1874 17.3678 12 17.3678C11.8126 17.3678 11.6289 17.4253 11.47 17.5336L5 21.9452V4.27269Z" fill="#727272"/>
</g>
<defs>
<clipPath id="clip0_2086_34">
<rect width="24" height="24" fill="white"/>
</clipPath>
</defs>
</svg>
