<svg width="32" height="32" viewBox="0 0 32 32" fill="none" xmlns="http://www.w3.org/2000/svg">
<path d="M30 16C30 8.26792 23.7321 2 16 2C8.26792 2 2 8.26792 2 16C2 23.7321 8.26792 30 16 30H30V27.6667H23.7292C25.6563 26.3908 27.2376 24.6577 28.3318 22.622C29.426 20.5862 29.9991 18.3112 30 16ZM22.8575 25.4388C21.2939 26.5747 19.1046 26.2283 17.9687 24.664C16.8327 23.1003 17.1792 20.9117 18.743 19.7752C20.3072 18.6391 22.4959 18.9856 23.6317 20.5499C24.7682 22.1136 24.4213 24.3021 22.8575 25.4388ZM22.6854 10.1479C24.5238 9.55023 26.4982 10.5562 27.0959 12.3946C27.6929 14.2335 26.6868 16.208 24.8486 16.805C23.0102 17.4025 21.0358 16.3965 20.4383 14.5581C19.8412 12.7199 20.8471 10.7449 22.6854 10.1479ZM16 4.33333C17.9329 4.33333 19.5 5.90046 19.5 7.83333C19.5 9.76621 17.9329 11.3333 16 11.3333C14.0671 11.3333 12.5 9.76621 12.5 7.83333C12.5 5.90046 14.0671 4.33333 16 4.33333ZM4.90412 12.3946C5.50175 10.5563 7.47619 9.55023 9.31442 10.1473C11.1528 10.7449 12.1587 12.7193 11.5617 14.5576C10.9642 16.3959 8.98979 17.4019 7.15142 16.8049C5.31304 16.2078 4.30708 14.2335 4.90412 12.3946ZM14.0312 24.664C12.8952 26.2283 10.7062 26.5747 9.14248 25.4388C7.57871 24.3023 7.23177 22.1136 8.36825 20.5499C9.50415 18.9862 11.6933 18.6393 13.257 19.7758C14.8208 20.9117 15.1671 23.1 14.0312 24.664ZM14.8333 16C14.8333 15.6906 14.9562 15.3938 15.175 15.175C15.3938 14.9562 15.6906 14.8333 16 14.8333C16.3094 14.8333 16.6062 14.9562 16.825 15.175C17.0437 15.3938 17.1667 15.6906 17.1667 16C17.1667 16.3094 17.0437 16.6062 16.825 16.825C16.6062 17.0437 16.3094 17.1667 16 17.1667C15.6906 17.1667 15.3938 17.0437 15.175 16.825C14.9562 16.6062 14.8333 16.3094 14.8333 16Z" fill="black"/>
</svg>
