<svg width="24" height="24" viewBox="0 0 24 24" fill="none" xmlns="http://www.w3.org/2000/svg">
<g clip-path="url(#clip0_2085_5)">
<path d="M10.8206 10.8206L15.5349 8.46257L13.1769 13.1769L8.46258 15.5349L10.8206 10.8206ZM24 12C24 14.3734 23.2962 16.6934 21.9776 18.6668C20.6591 20.6402 18.7849 22.1783 16.5922 23.0865C14.3995 23.9948 11.9867 24.2324 9.65892 23.7694C7.33115 23.3064 5.19295 22.1635 3.51472 20.4853C1.83649 18.807 0.693605 16.6689 0.230582 14.3411C-0.232441 12.0133 0.0051994 9.60051 0.913451 7.4078C1.8217 5.21508 3.35977 3.34094 5.33316 2.02236C7.30655 0.703788 9.62663 0 12 0C15.1816 0.00340334 18.2318 1.26878 20.4815 3.51848C22.7312 5.76818 23.9966 8.81844 24 12ZM18.0609 5.93914C17.9336 5.81204 17.7697 5.72817 17.5921 5.6994C17.4146 5.67064 17.2326 5.69843 17.0717 5.77886L9.79886 9.41486C9.63262 9.49785 9.49786 9.63262 9.41486 9.79886L5.77886 17.0717C5.69873 17.2325 5.67117 17.4145 5.70008 17.5918C5.72899 17.7692 5.81291 17.933 5.93997 18.06C6.06703 18.1871 6.23081 18.271 6.40816 18.2999C6.58551 18.3288 6.76746 18.3013 6.92829 18.2211L14.2011 14.5851C14.3674 14.5021 14.5021 14.3674 14.5851 14.2011L18.2211 6.92828C18.3016 6.76744 18.3294 6.58537 18.3006 6.40785C18.2718 6.23033 18.188 6.06636 18.0609 5.93914Z" fill="#E21221"/>
</g>
<defs>
<clipPath id="clip0_2085_5">
<rect width="24" height="24" fill="white"/>
</clipPath>
</defs>
</svg>
