<svg width="24" height="24" viewBox="0 0 24 24" fill="none" xmlns="http://www.w3.org/2000/svg">
<path d="M17.0034 1.11523C15.8844 1.11523 14.8149 1.37176 13.8246 1.87774C13.1506 2.2221 12.5314 2.67964 12 3.22248C11.4686 2.67964 10.8494 2.2221 10.1754 1.87774C9.18507 1.37176 8.11556 1.11523 6.99652 1.11523C3.13866 1.11523 0 4.25389 0 8.1118C0 10.8443 1.44312 13.7464 4.28922 16.7377C6.66557 19.2352 9.57496 21.3171 11.5971 22.6238L12 22.8842L12.4029 22.6238C14.425 21.3171 17.3344 19.2352 19.7108 16.7377C22.5569 13.7464 24 10.8443 24 8.1118C24 4.25389 20.8613 1.11523 17.0034 1.11523Z" fill="#E21221"/>
</svg>
