<svg width="24" height="24" viewBox="0 0 24 24" fill="none" xmlns="http://www.w3.org/2000/svg">
<g clip-path="url(#clip0_2085_11)">
<path d="M23.3789 10.4388C23.3782 10.4383 23.3776 10.4376 23.3771 10.437L13.586 0.647345C13.1686 0.229782 12.6138 0 12.0236 0C11.4334 0 10.8785 0.229782 10.461 0.647298L0.674986 10.4321C0.671704 10.4353 0.668235 10.4388 0.665141 10.4421C-0.191914 11.304 -0.190414 12.7024 0.66936 13.562C1.06212 13.955 1.5807 14.1824 2.13543 14.2064C2.15812 14.2086 2.18086 14.2097 2.20373 14.2097H2.59377V21.4142C2.59377 22.84 3.75405 24 5.18003 24H9.01062C9.39902 24 9.71382 23.685 9.71382 23.2969V17.6485C9.71382 16.9979 10.2432 16.4687 10.8939 16.4687H13.1532C13.8039 16.4687 14.3331 16.9979 14.3331 17.6485V23.2969C14.3331 23.6851 14.6479 24 15.0363 24H18.8669C20.2931 24 21.4532 22.8401 21.4532 21.4142V14.2097H21.815C22.4051 14.2097 22.9599 13.9799 23.3776 13.5622C24.2383 12.7013 24.2387 11.3003 23.3789 10.4388L23.3789 10.4388ZM22.3831 12.568C22.3087 12.6429 22.2201 12.7022 22.1226 12.7426C22.0251 12.7831 21.9206 12.8038 21.815 12.8035H20.7499C20.3615 12.8035 20.0467 13.1182 20.0467 13.5066V21.4142C20.0467 22.0646 19.5175 22.5938 18.8669 22.5938H15.7395V17.6485C15.7395 16.2226 14.5794 15.0625 13.1532 15.0625H10.8939C9.46775 15.0625 8.30747 16.2226 8.30747 17.6485V22.5938H5.18013C4.52962 22.5938 4.00021 22.0646 4.00021 21.4142V13.5066C4.00021 13.1182 3.68541 12.8035 3.29702 12.8035H2.25024C2.23927 12.8027 2.22828 12.8022 2.21728 12.802C2.00778 12.7983 1.8113 12.7152 1.6641 12.5678C1.35094 12.2546 1.35094 11.7451 1.6641 11.4318C1.66424 11.4318 1.66424 11.4316 1.66443 11.4314L1.66499 11.4309L11.4557 1.64157C11.5301 1.56671 11.6185 1.50736 11.716 1.46697C11.8135 1.42657 11.9181 1.40594 12.0236 1.40625C12.238 1.40625 12.4396 1.48974 12.5914 1.64157L22.3799 11.4289L22.3845 11.4333C22.696 11.747 22.6955 12.2555 22.3831 12.568Z" fill="#727272"/>
</g>
<defs>
<clipPath id="clip0_2085_11">
<rect width="24" height="24" fill="white"/>
</clipPath>
</defs>
</svg>
