<svg width="18" height="14" viewBox="0 0 18 14" fill="none" xmlns="http://www.w3.org/2000/svg">
<path d="M17.6199 4.44794C17.7567 4.33919 17.9601 4.44092 17.9601 4.6128V11.7863C17.9601 12.7159 17.2059 13.4701 16.2764 13.4701H1.68376C0.754185 13.4701 0 12.7159 0 11.7863V4.61631C0 4.44092 0.199947 4.3427 0.34026 4.45144C1.12602 5.06181 2.16784 5.83704 5.74584 8.43635C6.48599 8.97655 7.73478 10.1131 8.98006 10.1061C10.2324 10.1166 11.5057 8.95551 12.2178 8.43635C15.7958 5.83704 16.8341 5.0583 17.6199 4.44794ZM8.98006 8.98006C9.79388 8.99409 10.9655 7.95577 11.5548 7.52782C16.2097 4.14977 16.564 3.85511 17.6374 3.01323C17.8409 2.85538 17.9601 2.60983 17.9601 2.35025V1.68376C17.9601 0.754185 17.2059 0 16.2764 0H1.68376C0.754185 0 0 0.754185 0 1.68376V2.35025C0 2.60983 0.119266 2.85187 0.322721 3.01323C1.39612 3.8516 1.75041 4.14977 6.40531 7.52782C6.99463 7.95577 8.16624 8.99409 8.98006 8.98006Z" fill="#A7A3A3"/>
</svg>
