<svg width="24" height="24" viewBox="0 0 24 24" fill="none" xmlns="http://www.w3.org/2000/svg">
<g clip-path="url(#clip0_2015_31)">
<path d="M10.7812 2.65381C9.07041 2.65381 7.6786 4.04562 7.6786 5.75642C7.6786 7.46717 9.07041 8.85898 10.7812 8.85898C12.492 8.85898 13.8838 7.46717 13.8838 5.75642C13.8838 4.04562 12.492 2.65381 10.7812 2.65381ZM10.7812 7.45268C9.84582 7.45268 9.08485 6.69172 9.08485 5.75637C9.08485 4.82103 9.84582 4.06001 10.7812 4.06001C11.7166 4.06001 12.4776 4.82098 12.4776 5.75637C12.4776 6.69172 11.7166 7.45268 10.7812 7.45268ZM5.75471 7.67857C4.04391 7.67857 2.6521 9.07039 2.6521 10.7811C2.6521 12.4919 4.04391 13.8837 5.75466 13.8837C7.46541 13.8837 8.85732 12.4919 8.85732 10.7811C8.85732 9.07039 7.46551 7.67857 5.75471 7.67857ZM5.75471 12.4774C4.81932 12.4774 4.0584 11.7165 4.0584 10.7811C4.0584 9.84579 4.81936 9.08482 5.75471 9.08482C6.69005 9.08482 7.45107 9.84579 7.45107 10.7811C7.45107 11.7165 6.69005 12.4774 5.75471 12.4774ZM10.7812 12.7033C9.07041 12.7033 7.6786 14.0951 7.6786 15.8059C7.6786 17.5166 9.07041 18.9084 10.7812 18.9084C12.492 18.9084 13.8838 17.5166 13.8838 15.8059C13.8838 14.0951 12.492 12.7033 10.7812 12.7033ZM10.7812 17.5022C9.84582 17.5022 9.08485 16.7412 9.08485 15.8059C9.08485 14.8705 9.84582 14.1095 10.7812 14.1095C11.7166 14.1095 12.4776 14.8705 12.4776 15.8059C12.4776 16.7412 11.7166 17.5022 10.7812 17.5022ZM15.8077 7.67857C14.097 7.67857 12.7051 9.07039 12.7051 10.7811C12.7051 12.4919 14.0969 13.8837 15.8077 13.8837C17.5185 13.8837 18.9103 12.4919 18.9103 10.7811C18.9103 9.07039 17.5185 7.67857 15.8077 7.67857ZM15.8077 12.4774C14.8724 12.4774 14.1113 11.7165 14.1113 10.7811C14.1113 9.84579 14.8724 9.08482 15.8077 9.08482C16.7431 9.08482 17.504 9.84579 17.504 10.7811C17.504 11.7165 16.7431 12.4774 15.8077 12.4774ZM10.7812 9.72026C10.1962 9.72026 9.72033 10.1962 9.72033 10.7811C9.72033 11.3661 10.1962 11.842 10.7812 11.842C11.3662 11.842 11.8421 11.3661 11.8421 10.7811C11.8421 10.1962 11.3662 9.72026 10.7812 9.72026Z" fill="#E21221"/>
<path d="M20.8594 20.1562H16.1142C19.3866 18.2879 21.5625 14.7881 21.5625 10.7812C21.5625 4.82241 16.7406 0 10.7812 0C4.82241 0 0 4.82194 0 10.7812C0 16.7401 4.82194 21.5625 10.7812 21.5625H20.8594C21.8157 21.5625 22.5938 22.3405 22.5938 23.2969C22.5938 23.6852 22.9086 24 23.2969 24C23.6852 24 24 23.6852 24 23.2969C24 21.5651 22.5911 20.1562 20.8594 20.1562ZM1.40625 10.7812C1.40625 5.61188 5.61188 1.40625 10.7812 1.40625C15.9506 1.40625 20.1562 5.61188 20.1562 10.7812C20.1562 15.9506 15.9506 20.1562 10.7812 20.1562C5.61188 20.1562 1.40625 15.9506 1.40625 10.7812Z" fill="#E21221"/>
</g>
<defs>
<clipPath id="clip0_2015_31">
<rect width="24" height="24" fill="white"/>
</clipPath>
</defs>
</svg>
