<svg width="32" height="32" viewBox="0 0 32 32" fill="none" xmlns="http://www.w3.org/2000/svg">
<path d="M3.00006 24.34C3.26527 24.34 3.51963 24.2347 3.70716 24.0472C3.8947 23.8596 4.00006 23.6053 4.00006 23.34V7.50006C4.00006 6.94906 4.44806 6.50006 5.00006 6.50006H20.8401C21.1053 6.50006 21.3596 6.3947 21.5472 6.20716C21.7347 6.01963 21.8401 5.76527 21.8401 5.50006C21.8401 5.23484 21.7347 4.98049 21.5472 4.79295C21.3596 4.60541 21.1053 4.50006 20.8401 4.50006H5.00006C3.34606 4.50006 2.00006 5.84606 2.00006 7.50006V23.34C2.00006 23.6053 2.10541 23.8596 2.29295 24.0472C2.48049 24.2347 2.73484 24.34 3.00006 24.34ZM30 7.50006C29.9984 6.97543 29.8587 6.46048 29.5951 6.00692C29.3314 5.55335 28.9531 5.17714 28.498 4.91606L29.706 3.70806C29.8016 3.61581 29.8777 3.50547 29.9301 3.38346C29.9826 3.26146 30.0101 3.13024 30.0113 2.99746C30.0125 2.86468 29.9871 2.733 29.9369 2.6101C29.8866 2.48721 29.8123 2.37556 29.7184 2.28166C29.6245 2.18777 29.5129 2.11352 29.39 2.06324C29.2671 2.01296 29.1354 1.98765 29.0026 1.98881C28.8699 1.98996 28.7386 2.01755 28.6166 2.06996C28.4946 2.12237 28.3843 2.19855 28.292 2.29406L2.29406 28.292C2.19855 28.3843 2.12237 28.4946 2.06996 28.6166C2.01755 28.7386 1.98996 28.8699 1.98881 29.0026C1.98765 29.1354 2.01296 29.2671 2.06324 29.39C2.11352 29.5129 2.18777 29.6245 2.28166 29.7184C2.37556 29.8123 2.48721 29.8866 2.6101 29.9369C2.733 29.9871 2.86468 30.0125 2.99746 30.0113C3.13024 30.0101 3.26146 29.9826 3.38346 29.9301C3.50547 29.8777 3.61581 29.8016 3.70806 29.706L5.91406 27.5H27C28.654 27.5 30 26.154 30 24.5V7.50006ZM28 24.5C28 24.7653 27.8947 25.0196 27.7072 25.2072C27.5196 25.3947 27.2653 25.5 27 25.5H7.91406L15.2291 18.1861L17.7921 21.806C17.8783 21.9287 17.991 22.0304 18.1219 22.1037C18.2527 22.1769 18.3984 22.2197 18.5481 22.2291C18.8481 22.2411 19.1461 22.127 19.3501 21.903L22.404 18.5271L25.39 22.657C25.4669 22.7636 25.5639 22.854 25.6757 22.9229C25.7875 22.9919 25.9118 23.0381 26.0415 23.0589C26.1712 23.0797 26.3038 23.0747 26.4315 23.0442C26.5593 23.0137 26.6798 22.9582 26.786 22.8811C27.233 22.5571 27.334 21.931 27.011 21.484L23.3011 16.3541C23.2137 16.2332 23.1004 16.1334 22.9696 16.062C22.8387 15.9906 22.6935 15.9494 22.5446 15.9413C22.3957 15.9333 22.2469 15.9586 22.1091 16.0155C21.9713 16.0724 21.8479 16.1593 21.748 16.2701L18.7111 19.6351L16.6651 16.7501L19.3051 14.1101C19.9021 14.6971 20.7161 15.0501 21.5901 15.0501C22.4517 15.049 23.2777 14.7062 23.887 14.097C24.4962 13.4877 24.839 12.6617 24.84 11.8001C24.84 10.9251 24.487 10.1121 23.896 9.51805L26.914 6.50006H27C27.552 6.50006 28 6.94906 28 7.50006V24.5ZM22.473 10.9421C22.696 11.1681 22.84 11.4671 22.84 11.8001C22.84 12.4901 22.2801 13.0501 21.5901 13.0501C21.2581 13.0501 20.9571 12.9081 20.7281 12.6871L22.473 10.9421Z" fill="#7A7A7A"/>
<path d="M12.316 11.3702C12.1538 11.3724 11.9946 11.4141 11.8521 11.4916C11.7096 11.5692 11.5881 11.6802 11.498 11.8152L8.20804 16.7452C8.08257 16.9369 8.02781 17.1664 8.05318 17.3941C8.07855 17.6219 8.18245 17.8337 8.34704 17.9932C8.39304 18.0392 8.42904 18.0942 8.48504 18.1322C8.59422 18.2054 8.71682 18.2563 8.84577 18.282C8.97471 18.3077 9.10747 18.3076 9.23638 18.2817C9.36529 18.2559 9.48782 18.2048 9.59692 18.1314C9.70601 18.0581 9.79951 17.9638 9.87204 17.8542L12.375 14.1042C12.5621 14.2583 12.7989 14.3392 13.0412 14.3318C13.2834 14.3244 13.5148 14.2293 13.6922 14.0641C13.8696 13.899 13.981 13.675 14.0056 13.4338C14.0302 13.1927 13.9664 12.9508 13.826 12.7532L13.727 12.6132L13.147 11.7932C13.0529 11.6611 12.9283 11.5537 12.7838 11.48C12.6393 11.4064 12.4792 11.3687 12.317 11.3702H12.316Z" fill="#7A7A7A"/>
</svg>
