<svg width="24" height="24" viewBox="0 0 24 24" fill="none" xmlns="http://www.w3.org/2000/svg">
<g clip-path="url(#clip0_2086_37)">
<path d="M11.8603 11.5609C13.4485 11.5609 14.8238 10.9912 15.9475 9.86729C17.0713 8.74361 17.6409 7.36867 17.6409 5.78027C17.6409 4.19234 17.0713 2.81727 15.9473 1.69317C14.8234 0.569623 13.4483 0 11.8603 0C10.2718 0 8.89682 0.569623 7.77313 1.69335C6.64944 2.81708 6.07958 4.1922 6.07958 5.78027C6.07958 7.36867 6.6494 8.74379 7.77332 9.86752C8.89724 10.9911 10.2724 11.5609 11.8603 11.5609ZM21.9748 18.4548C21.9424 17.9871 21.8768 17.4769 21.7803 16.9383C21.6829 16.3955 21.5575 15.8825 21.4073 15.4136C21.2523 14.9289 21.0413 14.4503 20.7806 13.9916C20.51 13.5155 20.1921 13.1009 19.8354 12.7598C19.4624 12.403 19.0057 12.1161 18.4776 11.9067C17.9514 11.6986 17.3682 11.5931 16.7444 11.5931C16.4994 11.5931 16.2625 11.6936 15.8049 11.9916C15.4796 12.2034 15.1534 12.4137 14.8262 12.6225C14.5118 12.8228 14.0859 13.0105 13.5598 13.1804C13.0466 13.3465 12.5255 13.4308 12.0111 13.4308C11.4968 13.4308 10.9758 13.3465 10.462 13.1804C9.93655 13.0107 9.51064 12.823 9.19658 12.6227C8.83236 12.39 8.50283 12.1776 8.21699 11.9913C7.75996 11.6934 7.52282 11.5929 7.27785 11.5929C6.6538 11.5929 6.07082 11.6985 5.54474 11.907C5.01702 12.1159 4.56018 12.4028 4.18682 12.76C3.83033 13.1013 3.51229 13.5157 3.242 13.9916C2.98147 14.4502 2.77054 14.9287 2.61524 15.4138C2.46524 15.8827 2.33985 16.3955 2.24244 16.9383C2.14593 17.4762 2.0804 17.9866 2.04796 18.4553C2.01569 18.927 1.9997 19.3997 2 19.8725C2 21.1254 2.39825 22.1395 3.1836 22.8875C3.95924 23.6257 4.98552 24.0001 6.23357 24.0001H17.7898C19.0378 24.0001 20.0637 23.6258 20.8395 22.8876C21.6251 22.1401 22.0233 21.1257 22.0233 19.8723C22.0231 19.3888 22.0069 18.9118 21.9748 18.4548Z" fill="#E21221"/>
</g>
<defs>
<clipPath id="clip0_2086_37">
<rect width="24" height="24" fill="white"/>
</clipPath>
</defs>
</svg>
