<svg width="24" height="24" viewBox="0 0 24 24" fill="none" xmlns="http://www.w3.org/2000/svg">
<path d="M11.8488 11.5609C13.4351 11.5609 14.8087 10.9912 15.9313 9.86731C17.0535 8.74362 17.6227 7.36869 17.6227 5.78029C17.6227 4.19235 17.0537 2.81728 15.9311 1.69317C14.8085 0.569624 13.435 0 11.8488 0C10.2622 0 8.88878 0.569624 7.7664 1.69336C6.64402 2.81709 6.07483 4.19221 6.07483 5.78029C6.07483 7.36869 6.64398 8.74381 7.76645 9.86754C8.8892 10.9911 10.2627 11.5609 11.8487 11.5609H11.8488ZM8.75989 2.68781C9.6211 1.82554 10.6314 1.40643 11.8488 1.40643C13.0659 1.40643 14.0764 1.82554 14.9378 2.68781C15.7991 3.55021 16.2179 4.56187 16.2179 5.78024C16.2179 6.99899 15.7991 8.0105 14.9378 8.87291C14.0764 9.73536 13.0659 10.1545 11.8488 10.1545C10.6318 10.1545 9.62152 9.73517 8.75989 8.87291C7.89844 8.01069 7.47963 6.99903 7.47963 5.78029C7.47963 4.56187 7.89844 3.55021 8.75989 2.68781ZM21.9515 18.4548C21.9191 17.9872 21.8537 17.477 21.7573 16.9383C21.66 16.3956 21.5347 15.8825 21.3847 15.4136C21.2297 14.9289 21.0192 14.4503 20.7585 13.9916C20.4884 13.5155 20.1709 13.101 19.8146 12.7599C19.4421 12.403 18.9859 12.1161 18.4585 11.9067C17.9329 11.6986 17.3503 11.5931 16.7272 11.5931C16.4825 11.5931 16.2459 11.6936 15.7888 11.9916C15.4639 12.2034 15.1381 12.4137 14.8112 12.6225C14.4972 12.8229 14.0718 13.0106 13.5463 13.1805C13.0337 13.3466 12.5132 13.4308 11.9993 13.4308C11.4857 13.4308 10.9652 13.3466 10.4522 13.1805C9.92731 13.0107 9.50171 12.8231 9.1882 12.6227C8.8244 12.39 8.49526 12.1776 8.20975 11.9914C7.75306 11.6935 7.51638 11.5929 7.2717 11.5929C6.64838 11.5929 6.06607 11.6986 5.54061 11.907C5.0135 12.1159 4.55719 12.4028 4.18427 12.7601C3.82801 13.1013 3.51052 13.5157 3.24055 13.9916C2.98033 14.4503 2.76963 14.9287 2.61452 15.4138C2.46469 15.8827 2.33945 16.3956 2.24216 16.9383C2.14556 17.4763 2.0803 17.9866 2.0479 18.4554C2.01606 18.9137 2 19.3907 2 19.8726C2 21.1254 2.39779 22.1396 3.18222 22.8876C3.95695 23.6258 4.9819 24 6.22863 24H17.7714C19.0177 24 20.0427 23.6257 20.8176 22.8876C21.6022 22.1401 22 21.1256 22 19.8724C21.9998 19.3888 21.9836 18.9118 21.9515 18.4548ZM19.849 21.8686C19.3371 22.3564 18.6574 22.5935 17.7711 22.5935H6.22868C5.34223 22.5935 4.66258 22.3564 4.15084 21.8688C3.64883 21.3903 3.40485 20.7372 3.40485 19.8726C3.40485 19.4229 3.41964 18.9789 3.44933 18.5526C3.47817 18.1344 3.53726 17.6749 3.6249 17.1868C3.71138 16.7047 3.82146 16.2522 3.95241 15.8426C4.07808 15.4498 4.24944 15.061 4.46196 14.6863C4.66478 14.3292 4.89814 14.0229 5.15565 13.7761C5.39654 13.5452 5.70017 13.3563 6.05788 13.2146C6.38871 13.0834 6.76056 13.0116 7.1642 13.0008C7.21336 13.0271 7.30101 13.077 7.44292 13.1696C7.73171 13.3581 8.06456 13.5731 8.43256 13.8083C8.84739 14.0731 9.38176 14.3122 10.0202 14.5186C10.673 14.7299 11.3387 14.8372 11.9995 14.8372C12.6603 14.8372 13.3262 14.7299 13.9786 14.5188C14.6176 14.312 15.1518 14.0731 15.5672 13.8079C15.9438 13.567 16.2673 13.3583 16.556 13.1696C16.698 13.0772 16.7856 13.027 16.8348 13.0008C17.2386 13.0116 17.6104 13.0834 17.9415 13.2145C18.299 13.3563 18.6027 13.5454 18.8435 13.7761C19.101 14.0227 19.3344 14.3291 19.5372 14.6865C19.7499 15.061 19.9215 15.4501 20.0469 15.8425C20.1781 16.2526 20.2883 16.7049 20.3747 17.1866C20.4621 17.6757 20.5214 18.1353 20.5503 18.5528V18.5531C20.5801 18.9777 20.5951 19.4216 20.5952 19.8726C20.5951 20.7374 20.3511 21.3904 19.8491 21.8686H19.849Z" fill="#727272"/>
</svg>
