<svg width="20" height="24" viewBox="0 0 20 24" fill="none" xmlns="http://www.w3.org/2000/svg">
<path d="M9.84877 11.5609C11.4351 11.5609 12.8087 10.9912 13.9313 9.86731C15.0535 8.74362 15.6227 7.36869 15.6227 5.78029C15.6227 4.19235 15.0537 2.81728 13.9311 1.69317C12.8085 0.569624 11.435 0 9.84877 0C8.26217 0 6.88878 0.569624 5.7664 1.69336C4.64402 2.81709 4.07483 4.19221 4.07483 5.78029C4.07483 7.36869 4.64398 8.74381 5.76645 9.86754C6.8892 10.9911 8.26273 11.5609 9.84872 11.5609H9.84877ZM6.75989 2.68781C7.6211 1.82554 8.63144 1.40643 9.84877 1.40643C11.0659 1.40643 12.0764 1.82554 12.9378 2.68781C13.7991 3.55021 14.2179 4.56187 14.2179 5.78024C14.2179 6.99899 13.7991 8.0105 12.9378 8.8729C12.0764 9.73536 11.0659 10.1545 9.84877 10.1545C8.63177 10.1545 7.62152 9.73517 6.75989 8.8729C5.89844 8.01069 5.47963 6.99903 5.47963 5.78029C5.47963 4.56187 5.89844 3.55021 6.75989 2.68781ZM19.9515 18.4548C19.9191 17.9872 19.8537 17.477 19.7573 16.9383C19.66 16.3956 19.5347 15.8825 19.3847 15.4136C19.2297 14.9289 19.0192 14.4503 18.7585 13.9916C18.4884 13.5155 18.1709 13.101 17.8146 12.7599C17.4421 12.403 16.9859 12.1161 16.4585 11.9067C15.9329 11.6986 15.3503 11.5932 14.7272 11.5932C14.4825 11.5932 14.2459 11.6936 13.7888 11.9916C13.4639 12.2034 13.1381 12.4137 12.8112 12.6225C12.4972 12.8229 12.0718 13.0106 11.5463 13.1805C11.0337 13.3466 10.5132 13.4308 9.99925 13.4308C9.48572 13.4308 8.96517 13.3466 8.45216 13.1805C7.92731 13.0107 7.50171 12.8231 7.1882 12.6227C6.8244 12.39 6.49526 12.1776 6.20975 11.9914C5.75306 11.6935 5.51638 11.5929 5.2717 11.5929C4.64838 11.5929 4.06607 11.6986 3.54061 11.907C3.0135 12.1159 2.55719 12.4028 2.18427 12.7601C1.82801 13.1013 1.51052 13.5157 1.24055 13.9916C0.980326 14.4503 0.769634 14.9287 0.614518 15.4138C0.464693 15.8827 0.339448 16.3956 0.242155 16.9383C0.145565 17.4763 0.080297 17.9866 0.0478973 18.4554C0.0160594 18.9137 0 19.3906 0 19.8726C0 21.1254 0.397786 22.1396 1.18222 22.8876C1.95695 23.6258 2.9819 24 4.22863 24H15.7714C17.0177 24 18.0427 23.6257 18.8176 22.8876C19.6022 22.1401 20 21.1256 20 19.8724C19.9998 19.3888 19.9836 18.9118 19.9515 18.4548ZM17.849 21.8686C17.3371 22.3564 16.6574 22.5935 15.7711 22.5935H4.22868C3.34223 22.5935 2.66258 22.3564 2.15084 21.8688C1.64883 21.3903 1.40485 20.7372 1.40485 19.8726C1.40485 19.4229 1.41964 18.9789 1.44933 18.5526C1.47817 18.1344 1.53726 17.6749 1.6249 17.1868C1.71138 16.7047 1.82146 16.2522 1.95241 15.8426C2.07808 15.4498 2.24944 15.061 2.46196 14.6863C2.66478 14.3292 2.89814 14.0229 3.15565 13.7761C3.39654 13.5452 3.70017 13.3563 4.05788 13.2146C4.38871 13.0834 4.76056 13.0116 5.1642 13.0008C5.21336 13.0271 5.30101 13.077 5.44292 13.1696C5.73171 13.3581 6.06456 13.5731 6.43256 13.8083C6.84739 14.0731 7.38176 14.3122 8.02025 14.5186C8.67297 14.7299 9.33871 14.8372 9.99949 14.8372C10.6603 14.8372 11.3262 14.7299 11.9786 14.5188C12.6176 14.312 13.1518 14.0731 13.5672 13.8079C13.9438 13.567 14.2673 13.3583 14.556 13.1696C14.698 13.0772 14.7856 13.027 14.8348 13.0008C15.2386 13.0116 15.6104 13.0834 15.9415 13.2145C16.299 13.3563 16.6027 13.5454 16.8435 13.7761C17.101 14.0227 17.3344 14.3291 17.5372 14.6865C17.7499 15.061 17.9215 15.4501 18.0469 15.8425C18.1781 16.2526 18.2883 16.7049 18.3747 17.1866C18.4621 17.6757 18.5214 18.1353 18.5503 18.5528V18.5531C18.5801 18.9777 18.5951 19.4216 18.5952 19.8726C18.5951 20.7374 18.3511 21.3904 17.8491 21.8686H17.849Z" fill="#727272"/>
</svg>
