<svg width="24" height="24" viewBox="0 0 24 24" fill="none" xmlns="http://www.w3.org/2000/svg">
<g clip-path="url(#clip0_2015_45)">
<path d="M19.4065 6.97266C19.6653 6.97266 19.8752 6.7628 19.8752 6.50391V1.40625C19.8752 0.630844 19.2444 0 18.469 0H1.40649C0.631088 0 0.000244141 0.630844 0.000244141 1.40625V22.5938C0.000244141 23.3692 0.631088 24 1.40649 24H18.469C19.2444 24 19.8752 23.3692 19.8752 22.5938V19.1404C19.8752 18.8815 19.6653 18.6716 19.4065 18.6716C19.1477 18.6716 18.9377 18.8815 18.9377 19.1404V22.5938C18.9377 22.8522 18.7275 23.0625 18.469 23.0625H1.40649C1.14803 23.0625 0.937744 22.8522 0.937744 22.5938V1.40625C0.937744 1.14778 1.14803 0.9375 1.40649 0.9375H18.469C18.7275 0.9375 18.9377 1.14778 18.9377 1.40625V6.50391C18.9377 6.7628 19.1477 6.97266 19.4065 6.97266Z" fill="#E21221"/>
<path d="M9.9378 2.53125C7.55988 2.53125 5.6253 4.46583 5.6253 6.84375C5.6253 8.07736 6.14608 9.19148 6.97915 9.97823C6.99476 9.99492 7.01135 10.0107 7.02949 10.0251C7.79688 10.7273 8.81815 11.1562 9.93776 11.1562C11.0574 11.1562 12.0786 10.7272 12.846 10.0251C12.8639 10.0107 12.8808 9.99507 12.8964 9.97823C13.7295 9.19148 14.2503 8.07736 14.2503 6.84375C14.2503 4.46583 12.3157 2.53125 9.9378 2.53125ZM9.9378 10.2188C9.17238 10.2188 8.46597 9.96225 7.89916 9.53119C8.31115 8.80064 9.07994 8.34375 9.9378 8.34375C10.7957 8.34375 11.5645 8.80064 11.9764 9.53119C11.4096 9.96225 10.7032 10.2188 9.9378 10.2188ZM9.1878 6.65625V6.35156C9.1878 5.93803 9.52427 5.60156 9.9378 5.60156C10.3513 5.60156 10.6878 5.93803 10.6878 6.35156V6.65625C10.6878 7.06978 10.3513 7.40625 9.9378 7.40625C9.52427 7.40625 9.1878 7.06978 9.1878 6.65625ZM12.6537 8.84452C12.3116 8.33623 11.8329 7.93493 11.2727 7.68684C11.4934 7.40152 11.6253 7.04409 11.6253 6.65625V6.35156C11.6253 5.42105 10.8683 4.66406 9.9378 4.66406C9.00729 4.66406 8.2503 5.42105 8.2503 6.35156V6.65625C8.2503 7.04409 8.38216 7.40152 8.60294 7.68684C8.04272 7.93493 7.56397 8.33623 7.22187 8.84452C6.80801 8.28422 6.5628 7.5922 6.5628 6.84375C6.5628 4.98277 8.07682 3.46875 9.9378 3.46875C11.7988 3.46875 13.3128 4.98277 13.3128 6.84375C13.3128 7.5922 13.0676 8.28422 12.6537 8.84452ZM12.4691 20.5312H9.9378C9.67896 20.5312 9.46905 20.7411 9.46905 21C9.46905 21.2589 9.67896 21.4688 9.9378 21.4688H12.4691C12.7279 21.4688 12.9378 21.2589 12.9378 21C12.9378 20.7411 12.7279 20.5312 12.4691 20.5312ZM12.4691 17.9062H5.8128C5.55396 17.9062 5.34405 18.1161 5.34405 18.375C5.34405 18.6339 5.55396 18.8438 5.8128 18.8438H12.4691C12.7279 18.8438 12.9378 18.6339 12.9378 18.375C12.9378 18.1161 12.7279 17.9062 12.4691 17.9062ZM12.4691 15.2812H5.8128C5.55396 15.2812 5.34405 15.4911 5.34405 15.75C5.34405 16.0089 5.55396 16.2188 5.8128 16.2188H12.4691C12.7279 16.2188 12.9378 16.0089 12.9378 15.75C12.9378 15.4911 12.7279 15.2812 12.4691 15.2812ZM4.14213 12.7936C4.05392 12.7059 3.93468 12.6566 3.8103 12.6562C3.68697 12.6562 3.56604 12.7064 3.4789 12.7936C3.39171 12.8808 3.34155 13.0017 3.34155 13.125C3.34155 13.2483 3.39166 13.3692 3.4789 13.4564C3.56705 13.5439 3.68609 13.5933 3.8103 13.5938C3.93405 13.5938 4.05452 13.5436 4.14213 13.4564C4.22932 13.3692 4.27952 13.2483 4.27952 13.125C4.27952 13.0017 4.22936 12.8808 4.14213 12.7936ZM4.14213 15.4186C4.05387 15.331 3.93466 15.2816 3.8103 15.2812C3.68697 15.2813 3.56655 15.3314 3.4789 15.4186C3.39171 15.5058 3.34155 15.6267 3.34155 15.75C3.34155 15.8733 3.39166 15.9942 3.4789 16.0814C3.56705 16.1689 3.68609 16.2183 3.8103 16.2188C3.93405 16.2188 4.05452 16.1686 4.14213 16.0814C4.22932 15.9942 4.27952 15.8733 4.27952 15.75C4.27952 15.6267 4.22936 15.5058 4.14213 15.4186ZM4.14213 18.0436C4.05387 17.956 3.93466 17.9066 3.8103 17.9062C3.68697 17.9062 3.56655 17.9564 3.4789 18.0436C3.39171 18.1308 3.34155 18.2517 3.34155 18.375C3.34155 18.4983 3.39166 18.6192 3.4789 18.7064C3.56699 18.794 3.68607 18.8434 3.8103 18.8438C3.93405 18.8438 4.05499 18.7936 4.14213 18.7064C4.22932 18.6192 4.27952 18.4983 4.27952 18.375C4.27952 18.2517 4.22936 18.1308 4.14213 18.0436ZM12.4691 12.6562H5.8128C5.55396 12.6562 5.34405 12.8661 5.34405 13.125C5.34405 13.3839 5.55396 13.5938 5.8128 13.5938H12.4691C12.7279 13.5938 12.9378 13.3839 12.9378 13.125C12.9378 12.8661 12.7279 12.6562 12.4691 12.6562ZM23.0157 6.10875C22.5603 5.84583 22.0298 5.77598 21.5217 5.91206C21.0138 6.04819 20.5892 6.37397 20.3263 6.82936L14.4275 17.0464C14.3952 17.1024 14.3748 17.1645 14.3676 17.2288L13.9524 20.948C13.9451 21.0135 13.9517 21.0799 13.9718 21.1427C13.9918 21.2055 14.0249 21.2633 14.0689 21.3125C14.1129 21.3616 14.1667 21.401 14.2269 21.4279C14.287 21.4548 14.3522 21.4688 14.4182 21.4688C14.5182 21.4688 14.6156 21.4368 14.6962 21.3775L17.7095 19.1582C17.7616 19.1199 17.8051 19.0712 17.8375 19.0152L23.7363 8.79816C24.2791 7.85803 23.9558 6.65156 23.0157 6.10875ZM15.0029 19.9872L15.2198 18.0451L16.5764 18.8284L15.0029 19.9872ZM17.26 18.1404L15.4738 17.1092L20.2075 8.91028L21.9936 9.94153L17.26 18.1404ZM22.9244 8.32936L22.4623 9.12966L20.6762 8.09841L21.1382 7.29811C21.2056 7.1806 21.2957 7.07763 21.4032 6.99515C21.5106 6.91268 21.6334 6.85235 21.7644 6.81764C21.8951 6.7822 22.0316 6.77306 22.166 6.79075C22.3003 6.80844 22.4298 6.8526 22.5469 6.92067C22.6644 6.98809 22.7674 7.07814 22.8498 7.18562C22.9323 7.2931 22.9927 7.41587 23.0274 7.54683C23.0628 7.67759 23.0719 7.81409 23.0543 7.94841C23.0366 8.08273 22.9924 8.21221 22.9244 8.32936Z" fill="#E21221"/>
</g>
<defs>
<clipPath id="clip0_2015_45">
<rect width="24" height="24" fill="white"/>
</clipPath>
</defs>
</svg>
