<svg width="24" height="24" viewBox="0 0 24 24" fill="none" xmlns="http://www.w3.org/2000/svg">
<g clip-path="url(#clip0_1983_2)">
<path d="M13.1476 23.9327C17.962 23.3934 21.8203 19.5449 22.3694 14.7305C23.0901 8.43549 18.1973 3.07692 12.0641 3.00828V0.184364C12.0641 0.0274802 11.868 -0.0558645 11.7356 0.0421881L5.92109 4.31238C5.82304 4.38592 5.82304 4.5281 5.92109 4.60164L11.7356 8.87183C11.868 8.96988 12.0641 8.88163 12.0641 8.72965V5.91064C16.3735 5.97928 19.825 9.64644 19.5308 14.0294C19.2808 17.7995 16.2068 20.8588 12.4367 21.099C8.44104 21.3539 5.04352 18.5006 4.43559 14.7256C4.32283 14.0245 3.71 13.5146 3.00402 13.5146C2.12645 13.5146 1.44008 14.2941 1.57736 15.1619C2.43042 20.5401 7.39678 24.575 13.1476 23.9327Z" fill="#7A7A7A"/>
</g>
<defs>
<clipPath id="clip0_1983_2">
<rect width="24" height="24" fill="white"/>
</clipPath>
</defs>
</svg>
