<svg width="24" height="24" viewBox="0 0 24 24" fill="none" xmlns="http://www.w3.org/2000/svg">
<path d="M23.7034 1.29657C23.5056 1.09889 23.2711 0.999726 23.0002 0.999726C22.7294 0.999726 22.4953 1.09889 22.2971 1.29657L20.266 3.3125C19.1514 2.26029 17.8752 1.445 16.4378 0.86701C15.0006 0.288967 13.521 0 12.0001 0C9.13538 0 6.63549 0.867064 4.49999 2.60158C2.36443 4.33587 0.95824 6.59867 0.28114 9.39054V9.49983C0.28114 9.63523 0.33056 9.75252 0.429563 9.85136C0.528567 9.95036 0.645686 9.99978 0.781084 9.99978H3.89042C4.11968 9.99978 4.27582 9.87992 4.35923 9.64049C4.79667 8.59889 5.07261 7.98955 5.18732 7.81239C5.91642 6.62489 6.88516 5.69253 8.09357 5.01543C9.30208 4.33839 10.6041 3.99973 11.9999 3.99973C14.0938 3.99973 15.9115 4.71333 17.4533 6.14043L15.2966 8.29657C15.0992 8.49453 15 8.72904 15 8.99989C15 9.27069 15.0992 9.50509 15.2966 9.70299C15.4948 9.90094 15.7293 9.99983 16.0001 9.99983H23.0002C23.2711 9.99983 23.5055 9.90094 23.7034 9.70299C23.9011 9.50509 24 9.27074 24 8.99989V1.99973C24 1.72887 23.9017 1.49458 23.7034 1.29657ZM23.1092 14.0001H20.1092C19.88 14.0001 19.7238 14.1198 19.6407 14.3595C19.2034 15.4012 18.9271 16.0102 18.8127 16.1874C18.0834 17.3746 17.1146 18.3073 15.9065 18.9843C14.6979 19.6616 13.3959 19.9999 12.0001 19.9999C10.9897 19.9999 10.0157 19.8126 9.0783 19.4377C8.1408 19.0623 7.30214 18.531 6.56265 17.8434L8.70335 15.7029C8.90119 15.5051 9.0002 15.2705 9.0002 14.9998C9.0002 14.729 8.90119 14.4943 8.70335 14.2967C8.5054 14.0986 8.27111 13.9995 8.00026 13.9995H1.00011C0.729092 13.9995 0.49469 14.0986 0.296792 14.2967C0.0988943 14.4944 0 14.729 0 14.9998V22C0 22.2706 0.0988942 22.5053 0.296847 22.7031C0.494909 22.9007 0.729311 23.0002 1.00016 23.0002C1.27096 23.0002 1.50525 22.9007 1.70326 22.7031L3.71885 20.6873C4.8335 21.7496 6.10184 22.5675 7.52374 23.1404C8.94563 23.7135 10.417 23.9997 11.9377 23.9997C14.7921 23.9997 17.2816 23.1325 19.4066 21.3982C21.5316 19.664 22.9274 17.4007 23.5944 14.6091C23.6049 14.5883 23.6098 14.5518 23.6098 14.4999C23.6098 14.3643 23.5601 14.2475 23.4612 14.1482C23.3621 14.0497 23.2449 14.0001 23.1092 14.0001Z" fill="#7A7A7A"/>
</svg>
