<svg width="24" height="24" viewBox="0 0 24 24" fill="none" xmlns="http://www.w3.org/2000/svg">
<g clip-path="url(#clip0_1944_9)">
<path d="M5.37178 23.0676C5.1088 23.0676 4.8477 22.9854 4.62485 22.824C4.42217 22.677 4.26709 22.4735 4.17889 22.2389C4.0907 22.0043 4.07328 21.7489 4.12881 21.5045L5.67282 14.6901L0.436559 10.0893C0.248237 9.92461 0.112386 9.70813 0.0459084 9.46674C-0.020569 9.22534 -0.0147384 8.96969 0.0626749 8.73159C0.139613 8.49361 0.284569 8.2835 0.479572 8.12729C0.674575 7.97108 0.911048 7.87566 1.15967 7.85284L8.08783 7.22259L10.827 0.800032C11.0289 0.328158 11.4889 0.0234375 12 0.0234375C12.5111 0.0234375 12.971 0.328158 13.173 0.798952L15.9121 7.22259L22.8392 7.85274C23.3493 7.89877 23.7793 8.24463 23.9373 8.73154C24.0954 9.21849 23.9492 9.75255 23.5643 10.0892L18.3281 14.6892L19.8721 21.5034C19.9852 22.0044 19.7911 22.5226 19.3762 22.8231C18.9622 23.1236 18.4101 23.1467 17.9742 22.8841L12 19.3071L6.02584 22.8861C5.82385 23.0063 5.5988 23.0676 5.37178 23.0676ZM12 17.7662C12.227 17.7662 12.4519 17.8273 12.654 17.9475L18.2922 21.3262L16.835 14.8945C16.784 14.6697 16.7946 14.4352 16.8658 14.216C16.9369 13.9967 17.0659 13.8009 17.2391 13.6491L22.1833 9.30467L15.642 8.70956C15.4118 8.68891 15.1916 8.60591 15.0049 8.46946C14.8181 8.33301 14.672 8.14824 14.582 7.93494L12 1.87407L9.41485 7.93583C9.23283 8.36769 8.82777 8.66438 8.35793 8.70749L1.81575 9.30265L6.75978 13.6471C7.11389 13.9577 7.26876 14.4347 7.16386 14.8936L5.70779 21.3251L11.3459 17.9475C11.5479 17.8273 11.773 17.7662 12 17.7662ZM8.03491 7.34677C8.03491 7.34677 8.03491 7.34785 8.03383 7.34879L8.03491 7.34677ZM15.9631 7.34381L15.9642 7.34583C15.9642 7.34475 15.9642 7.34475 15.963 7.34381H15.9631Z" fill="black"/>
</g>
<defs>
<clipPath id="clip0_1944_9">
<rect width="24" height="24" fill="white"/>
</clipPath>
</defs>
</svg>
