<svg width="24" height="24" viewBox="0 0 24 24" fill="none" xmlns="http://www.w3.org/2000/svg">
<g clip-path="url(#clip0_1955_5)">
<path d="M0 9.11358C0 9.51354 0.199102 9.87248 0.504023 10.0907V10.079L6.45721 14.4316L4.18377 21.4684C4.01965 21.9566 4.18377 22.504 4.61725 22.8221C5.05072 23.1391 5.625 23.1155 6.03539 22.8159L12 18.4739L17.9648 22.8159C18.375 23.1153 18.9434 23.1387 19.3768 22.8278C19.8165 22.5039 19.9745 21.9566 19.8104 21.4684C19.8165 21.4684 17.5371 14.4316 17.5371 14.4316L23.4961 10.0846V10.0908C23.8008 9.87254 24.0001 9.5136 24.0001 9.11358C24.0001 8.44316 23.4551 7.89597 22.7932 7.89597H15.4221L13.1426 0.858458C12.9902 0.377167 12.5333 0.0175781 12 0.0175781C11.4669 0.0175781 11.0098 0.377461 10.8577 0.858576L8.57818 7.89603H1.20709C0.539004 7.89597 0 8.44263 0 9.11358ZM12 3.82272L13.9689 9.8993H20.3556L15.1875 13.6679C15.1875 13.6679 16.4958 17.709 17.1564 19.7511L12.0001 15.9972L12 3.82272Z" fill="#E21221"/>
</g>
<defs>
<clipPath id="clip0_1955_5">
<rect width="24" height="24" fill="white"/>
</clipPath>
</defs>
</svg>
