<svg width="24" height="24" viewBox="0 0 24 24" fill="none" xmlns="http://www.w3.org/2000/svg">
<g clip-path="url(#clip0_1944_12)">
<path d="M23.9377 8.73144C23.8609 8.49316 23.7159 8.28277 23.5206 8.1265C23.3253 7.97024 23.0885 7.87502 22.8396 7.8527L15.9125 7.22245L13.1734 0.798811C12.9713 0.328064 12.5114 0.0234375 12.0004 0.0234375C11.4893 0.0234375 11.0293 0.328111 10.8274 0.799985L8.0882 7.2225L1.16004 7.8527C0.91142 7.87552 0.674947 7.97094 0.479945 8.12715C0.284942 8.28336 0.139986 8.49347 0.0630474 8.73144C-0.0949722 9.2184 0.0509534 9.75245 0.436041 10.0891L5.67211 14.69L4.1281 21.5044C4.01513 22.0054 4.2092 22.5234 4.62415 22.8239C4.84714 22.9853 5.1081 23.0675 5.37121 23.0675C5.59809 23.0675 5.8231 23.0062 6.02514 22.8852L12.0004 19.307L17.9734 22.8852C18.4105 23.1486 18.9615 23.1245 19.3755 22.8239C19.5782 22.6769 19.7332 22.4734 19.8214 22.2388C19.9096 22.0042 19.927 21.7488 19.8715 21.5044L18.3276 14.69L23.5636 10.0901C23.7519 9.92523 23.8878 9.70859 23.9543 9.46705C24.0208 9.22551 24.015 8.96971 23.9377 8.73144Z" fill="#E21221"/>
</g>
<defs>
<clipPath id="clip0_1944_12">
<rect width="24" height="24" fill="white"/>
</clipPath>
</defs>
</svg>
