<svg width="24" height="24" viewBox="0 0 24 24" fill="none" xmlns="http://www.w3.org/2000/svg">
<g clip-path="url(#clip0_1944_9)">
<path d="M5.37178 23.0671C5.1088 23.0671 4.8477 22.9849 4.62485 22.8235C4.42217 22.6765 4.26709 22.473 4.17889 22.2384C4.0907 22.0038 4.07328 21.7484 4.12881 21.504L5.67282 14.6896L0.436559 10.0888C0.248237 9.92413 0.112386 9.70764 0.0459084 9.46625C-0.020569 9.22485 -0.0147384 8.9692 0.0626749 8.7311C0.139613 8.49312 0.284569 8.28301 0.479572 8.1268C0.674575 7.9706 0.911048 7.87517 1.15967 7.85235L8.08783 7.2221L10.827 0.799544C11.0289 0.327669 11.4889 0.0229492 12 0.0229492C12.5111 0.0229492 12.971 0.327669 13.173 0.798464L15.9121 7.2221L22.8392 7.85226C23.3493 7.89828 23.7793 8.24415 23.9373 8.73105C24.0954 9.218 23.9492 9.75206 23.5643 10.0887L18.3281 14.6887L19.8721 21.5029C19.9852 22.0039 19.7911 22.5221 19.3762 22.8226C18.9622 23.1231 18.4101 23.1462 17.9742 22.8836L12 19.3066L6.02584 22.8857C5.82385 23.0058 5.5988 23.0671 5.37178 23.0671ZM12 17.7658C12.227 17.7658 12.4519 17.8268 12.654 17.947L18.2922 21.3257L16.835 14.894C16.784 14.6692 16.7946 14.4347 16.8658 14.2155C16.9369 13.9963 17.0659 13.8004 17.2391 13.6486L22.1833 9.30419L15.642 8.70907C15.4118 8.68842 15.1916 8.60543 15.0049 8.46897C14.8181 8.33252 14.672 8.14775 14.582 7.93445L12 1.87358L9.41485 7.93534C9.23283 8.3672 8.82777 8.66389 8.35793 8.707L1.81575 9.30217L6.75978 13.6466C7.11389 13.9572 7.26876 14.4342 7.16386 14.8931L5.70779 21.3246L11.3459 17.947C11.5479 17.8268 11.773 17.7658 12 17.7658ZM8.03491 7.34628C8.03491 7.34628 8.03491 7.34736 8.03383 7.3483L8.03491 7.34628ZM15.9631 7.34332L15.9642 7.34534C15.9642 7.34426 15.9642 7.34426 15.963 7.34332H15.9631Z" fill="#727272"/>
</g>
<defs>
<clipPath id="clip0_1944_9">
<rect width="24" height="24" fill="white"/>
</clipPath>
</defs>
</svg>
